<?xml version="1.0" encoding="UTF-8" standalone="no"?>
<!DOCTYPE svg PUBLIC "-//W3C//DTD SVG 1.1//EN" "http://www.w3.org/Graphics/SVG/1.1/DTD/svg11.dtd">
<svg version="1.1" xmlns="http://www.w3.org/2000/svg" xmlns:xlink="http://www.w3.org/1999/xlink" preserveAspectRatio="xMidYMid meet" viewBox="273.0859051198452 266.6881603053435 48.79996537900877 41.67324526239065" width="38.05" height="32"><defs><path d="M302.76 267.7L303.12 267.71L303.48 267.73L303.85 267.74L304.22 267.76L304.6 267.79L304.97 267.82L305.35 267.85L305.73 267.88L306.12 267.92L306.5 267.96L306.89 268L307.28 268.05L307.67 268.1L308.07 268.15L308.46 268.2L308.86 268.26L309.26 268.33L309.66 268.39L310.06 268.46L310.46 268.53L310.86 268.61L311.26 268.68L311.66 268.76L312.07 268.85L312.47 268.94L312.87 269.03L313.02 269.06L313.17 269.1L313.31 269.14L313.46 269.18L313.61 269.23L313.76 269.27L313.91 269.31L314.06 269.35L314.21 269.4L314.36 269.45L314.51 269.49L314.66 269.54L314.81 269.6L314.95 269.65L315.1 269.71L315.25 269.77L315.4 269.83L315.54 269.89L315.69 269.96L315.83 270.03L315.97 270.11L316.11 270.19L316.26 270.27L316.39 270.36L316.53 270.45L316.67 270.54L316.8 270.64L316.93 270.74L317.07 270.86L317.2 270.99L317.33 271.12L317.45 271.27L317.57 271.41L317.68 271.57L317.79 271.72L317.89 271.89L317.99 272.06L318.08 272.24L318.17 272.42L318.26 272.6L318.34 272.79L318.41 272.98L318.48 273.18L318.55 273.38L318.6 273.58L318.66 273.79L318.7 274L318.75 274.21L318.78 274.43L318.82 274.65L318.84 274.86L318.86 275.09L318.88 275.31L318.88 275.53L318.89 275.75L318.88 275.98L318.87 276.54L318.85 277.11L318.83 277.67L318.81 278.23L318.79 278.8L318.77 279.36L318.74 279.91L318.72 280.47L318.69 281.02L318.65 281.57L318.62 282.12L318.58 282.66L318.53 283.2L318.48 283.74L318.43 284.27L318.37 284.8L318.3 285.32L318.23 285.84L318.16 286.36L318.08 286.87L317.99 287.37L317.9 287.87L317.79 288.36L317.68 288.84L317.57 289.32L317.44 289.79L317.31 290.26L317.17 290.71L317.12 290.89L317.05 291.07L316.98 291.25L316.9 291.43L316.81 291.61L316.71 291.8L316.6 291.98L316.48 292.16L316.36 292.34L316.22 292.51L316.08 292.68L315.93 292.85L315.77 293.02L315.6 293.17L315.43 293.33L315.24 293.47L315.05 293.61L314.86 293.74L314.65 293.86L314.44 293.97L314.22 294.07L313.99 294.17L313.76 294.25L313.52 294.32L313.27 294.37L313.02 294.41L312.76 294.44L312.5 294.46L311.74 294.51L310.99 294.57L310.25 294.62L309.51 294.67L308.78 294.72L308.05 294.77L307.32 294.82L306.6 294.86L305.87 294.91L305.16 294.95L304.44 294.99L303.72 295.03L303 295.06L302.29 295.09L301.57 295.12L300.86 295.15L300.14 295.17L299.42 295.19L298.69 295.21L297.97 295.22L297.24 295.23L296.51 295.24L295.77 295.24L295.03 295.24L294.29 295.24L293.54 295.23L292.78 295.22L292.02 295.2L291.73 295.5L291.45 295.79L291.18 296.08L290.92 296.36L290.66 296.63L290.42 296.91L290.18 297.18L289.95 297.45L289.72 297.73L289.5 298L289.28 298.27L289.07 298.55L288.86 298.83L288.65 299.12L288.45 299.41L288.24 299.71L288.04 300.01L287.84 300.32L287.63 300.65L287.43 300.98L287.23 301.32L287.02 301.67L286.81 302.04L286.6 302.42L286.38 302.82L286.16 303.23L285.93 303.65L285.7 304.1L285.64 304.2L285.58 304.29L285.52 304.38L285.46 304.47L285.39 304.55L285.31 304.63L285.24 304.71L285.16 304.77L285.08 304.84L285 304.9L284.91 304.96L284.83 305.01L284.74 305.06L284.65 305.11L284.56 305.15L284.47 305.19L284.37 305.22L284.28 305.25L284.18 305.28L284.09 305.3L283.99 305.32L283.9 305.33L283.8 305.35L283.71 305.36L283.61 305.36L283.52 305.36L283.42 305.36L283.33 305.35L283.28 305.35L283.24 305.35L283.19 305.34L283.15 305.33L283.1 305.33L283.05 305.32L283.01 305.31L282.96 305.3L282.92 305.29L282.87 305.28L282.83 305.27L282.79 305.26L282.74 305.24L282.7 305.23L282.65 305.21L282.61 305.19L282.57 305.18L282.52 305.16L282.48 305.14L282.44 305.12L282.39 305.09L282.35 305.07L282.31 305.05L282.27 305.02L282.23 305L282.19 304.97L282.14 304.94L282.1 304.91L282.06 304.87L282.02 304.83L281.97 304.79L281.93 304.75L281.89 304.71L281.85 304.66L281.81 304.62L281.77 304.57L281.73 304.52L281.7 304.47L281.67 304.41L281.63 304.36L281.6 304.3L281.57 304.25L281.55 304.19L281.52 304.13L281.5 304.06L281.48 304L281.46 303.94L281.44 303.87L281.43 303.81L281.41 303.74L281.4 303.67L281.4 303.6L281.39 303.53L281.39 303.46L281.39 303.38L281.39 303.31L281.71 294.61L281.55 294.6L281.4 294.58L281.25 294.57L281.1 294.55L280.95 294.53L280.8 294.52L280.65 294.5L280.49 294.48L280.34 294.46L280.19 294.45L280.04 294.43L279.89 294.41L279.74 294.39L279.59 294.37L279.44 294.36L279.29 294.34L279.13 294.32L278.98 294.3L278.83 294.28L278.68 294.26L278.53 294.24L278.38 294.22L278.23 294.2L278.08 294.17L277.93 294.15L277.78 294.13L277.63 294.11L277.47 294.09L277.36 294.07L277.24 294.05L277.13 294.02L277.01 294L276.9 293.97L276.79 293.93L276.69 293.9L276.58 293.86L276.47 293.82L276.37 293.78L276.27 293.74L276.17 293.69L276.08 293.64L275.98 293.59L275.89 293.53L275.8 293.48L275.71 293.42L275.63 293.35L275.54 293.29L275.46 293.22L275.39 293.15L275.31 293.08L275.24 293.01L275.17 292.93L275.1 292.86L275.03 292.78L274.97 292.69L274.91 292.61L274.86 292.52L274.81 292.43L274.76 292.34L274.71 292.24L274.67 292.14L274.63 292.03L274.59 291.93L274.55 291.82L274.52 291.71L274.49 291.59L274.46 291.48L274.43 291.36L274.4 291.24L274.38 291.12L274.35 291L274.33 290.88L274.31 290.75L274.3 290.63L274.28 290.51L274.27 290.38L274.25 290.26L274.24 290.13L274.23 290.01L274.22 289.89L274.21 289.76L274.21 289.64L274.2 289.52L274.2 289.4L274.18 288.89L274.16 288.38L274.15 287.87L274.13 287.37L274.12 286.86L274.11 286.37L274.1 285.87L274.09 285.38L274.09 284.88L274.09 284.4L274.09 283.91L274.09 283.42L274.1 282.94L274.11 282.46L274.12 281.98L274.14 281.5L274.16 281.02L274.18 280.55L274.21 280.07L274.25 279.6L274.29 279.12L274.33 278.65L274.39 278.18L274.44 277.7L274.5 277.23L274.57 276.76L274.65 276.28L274.73 275.81L274.74 275.72L274.76 275.63L274.78 275.54L274.8 275.46L274.81 275.37L274.83 275.28L274.85 275.19L274.87 275.11L274.89 275.02L274.91 274.93L274.94 274.85L274.96 274.76L274.99 274.68L275.01 274.59L275.04 274.5L275.07 274.42L275.1 274.33L275.13 274.25L275.16 274.16L275.2 274.08L275.24 273.99L275.27 273.91L275.32 273.82L275.36 273.74L275.4 273.65L275.45 273.57L275.5 273.49L275.55 273.4L275.61 273.31L275.67 273.22L275.74 273.14L275.81 273.05L275.88 272.97L275.95 272.89L276.03 272.81L276.11 272.73L276.2 272.65L276.28 272.58L276.37 272.51L276.46 272.44L276.55 272.37L276.65 272.31L276.75 272.24L276.84 272.18L276.94 272.12L277.05 272.07L277.15 272.02L277.25 271.97L277.36 271.92L277.47 271.88L277.57 271.84L277.68 271.8L277.79 271.76L277.9 271.73L278.01 271.71L278.12 271.68L278.99 271.44L279.87 271.21L280.74 270.98L281.6 270.75L282.47 270.53L283.34 270.31L284.21 270.1L285.07 269.9L285.94 269.71L286.8 269.52L287.66 269.33L288.52 269.16L289.38 268.99L290.24 268.84L291.09 268.69L291.95 268.55L292.8 268.42L293.65 268.3L294.5 268.18L295.35 268.08L296.19 267.99L297.03 267.91L297.87 267.85L298.71 267.79L299.55 267.75L300.38 267.71L301.21 267.69L302.04 267.69L302.4 267.69L302.76 267.7ZM300.28 269.75L299.42 269.79L298.57 269.84L297.7 269.9L296.84 269.98L295.97 270.06L295.09 270.16L294.22 270.27L293.34 270.4L292.46 270.53L291.57 270.67L290.68 270.83L289.79 270.99L288.9 271.16L288 271.34L287.1 271.53L286.2 271.73L285.29 271.94L284.39 272.15L283.48 272.37L282.57 272.6L281.66 272.83L280.74 273.07L279.83 273.32L278.91 273.57L278.84 273.59L278.77 273.61L278.63 273.65L278.55 273.67L278.48 273.68L278.41 273.7L278.34 273.72L278.28 273.75L278.21 273.77L278.14 273.79L278.07 273.82L278.01 273.85L277.94 273.88L277.88 273.91L277.82 273.94L277.76 273.98L277.7 274.02L277.64 274.06L277.58 274.11L277.52 274.16L277.47 274.21L277.42 274.27L277.36 274.33L277.31 274.4L277.27 274.47L277.24 274.53L277.21 274.59L277.18 274.65L277.16 274.72L277.13 274.78L277.1 274.85L277.08 274.91L277.05 274.98L277.03 275.04L277 275.11L276.98 275.18L276.95 275.25L276.93 275.32L276.91 275.39L276.89 275.46L276.87 275.53L276.85 275.6L276.83 275.67L276.81 275.74L276.8 275.81L276.78 275.88L276.77 275.95L276.76 276.02L276.74 276.09L276.73 276.16L276.73 276.23L276.64 276.71L276.57 277.19L276.5 277.67L276.44 278.15L276.39 278.64L276.34 279.12L276.3 279.6L276.26 280.09L276.23 280.58L276.2 281.07L276.18 281.56L276.16 282.05L276.14 282.55L276.13 283.05L276.13 283.55L276.13 284.06L276.13 284.57L276.13 285.08L276.14 285.6L276.14 286.12L276.16 286.64L276.17 287.17L276.18 287.7L276.2 288.24L276.22 288.79L276.23 289.33L276.24 289.42L276.24 289.51L276.24 289.6L276.25 289.68L276.25 289.76L276.25 289.85L276.26 289.92L276.26 290L276.27 290.08L276.27 290.16L276.28 290.23L276.29 290.31L276.3 290.39L276.31 290.46L276.32 290.54L276.34 290.62L276.35 290.69L276.37 290.77L276.39 290.85L276.41 290.93L276.44 291.02L276.46 291.1L276.49 291.19L276.53 291.28L276.56 291.37L276.6 291.46L276.62 291.5L276.65 291.53L276.67 291.56L276.7 291.59L276.72 291.62L276.75 291.65L276.78 291.68L276.81 291.71L276.85 291.74L276.88 291.76L276.92 291.79L276.96 291.81L277 291.83L277.04 291.86L277.09 291.88L277.14 291.9L277.19 291.92L277.24 291.94L277.3 291.96L277.36 291.98L277.42 291.99L277.49 292.01L277.56 292.03L277.63 292.04L277.71 292.05L277.79 292.07L277.99 292.1L278.18 292.13L278.37 292.15L278.57 292.18L278.76 292.21L278.96 292.24L279.15 292.26L279.35 292.29L279.54 292.31L279.73 292.34L279.93 292.36L280.12 292.39L280.32 292.41L280.51 292.44L280.71 292.46L280.9 292.48L281.1 292.5L281.29 292.53L281.49 292.55L281.68 292.57L281.88 292.59L282.07 292.61L282.27 292.63L282.46 292.65L282.66 292.67L282.85 292.69L282.91 292.7L282.97 292.71L283.02 292.72L283.08 292.74L283.13 292.76L283.18 292.79L283.24 292.82L283.28 292.85L283.33 292.88L283.38 292.92L283.42 292.96L283.46 293L283.5 293.04L283.54 293.09L283.57 293.14L283.61 293.18L283.64 293.23L283.66 293.29L283.69 293.34L283.71 293.39L283.72 293.45L283.74 293.51L283.75 293.56L283.76 293.62L283.76 293.68L283.76 293.74L283.45 303.17L283.45 303.18L283.45 303.19L283.45 303.19L283.45 303.2L283.45 303.21L283.46 303.22L283.46 303.23L283.46 303.23L283.46 303.24L283.47 303.25L283.47 303.25L283.48 303.26L283.48 303.27L283.49 303.27L283.49 303.28L283.5 303.29L283.51 303.29L283.51 303.3L283.52 303.3L283.53 303.3L283.54 303.31L283.55 303.31L283.56 303.31L283.57 303.32L283.58 303.32L283.59 303.32L283.6 303.32L283.62 303.31L283.64 303.31L283.65 303.31L283.67 303.31L283.68 303.3L283.7 303.3L283.71 303.29L283.73 303.29L283.74 303.28L283.75 303.28L283.77 303.27L283.78 303.26L283.79 303.26L283.8 303.25L283.81 303.24L283.83 303.23L283.84 303.23L283.85 303.22L283.86 303.21L283.86 303.2L283.87 303.19L283.88 303.18L283.89 303.17L283.9 303.15L283.9 303.14L284.17 302.64L284.43 302.15L284.68 301.69L284.93 301.24L285.17 300.8L285.41 300.38L285.65 299.98L285.89 299.59L286.13 299.21L286.37 298.84L286.61 298.48L286.85 298.13L287.09 297.78L287.34 297.45L287.59 297.11L287.84 296.78L288.1 296.46L288.37 296.13L288.64 295.81L288.93 295.49L289.22 295.16L289.52 294.83L289.83 294.5L290.15 294.16L290.48 293.82L290.82 293.47L290.85 293.44L290.87 293.42L290.9 293.4L290.92 293.38L290.95 293.36L290.97 293.34L291 293.32L291.03 293.31L291.06 293.29L291.09 293.28L291.11 293.26L291.14 293.25L291.17 293.24L291.2 293.23L291.23 293.22L291.27 293.21L291.3 293.2L291.33 293.19L291.36 293.18L291.39 293.18L291.42 293.17L291.46 293.17L291.49 293.17L291.52 293.17L291.55 293.16L291.59 293.17L292.42 293.19L293.24 293.2L294.06 293.21L294.87 293.22L295.67 293.22L296.47 293.22L297.26 293.21L298.05 293.19L298.83 293.18L299.62 293.16L300.4 293.13L301.18 293.1L301.95 293.07L302.73 293.04L303.51 293L304.29 292.96L305.07 292.92L305.85 292.87L306.64 292.82L307.43 292.77L308.23 292.72L309.03 292.66L309.83 292.61L310.65 292.55L311.47 292.49L312.29 292.43L312.48 292.4L312.66 292.38L312.83 292.34L313 292.3L313.16 292.25L313.31 292.19L313.46 292.13L313.6 292.06L313.74 291.98L313.87 291.9L313.99 291.81L314.11 291.72L314.22 291.62L314.33 291.51L314.44 291.4L314.54 291.29L314.63 291.17L314.72 291.04L314.81 290.91L314.89 290.77L314.97 290.63L315.04 290.49L315.11 290.34L315.18 290.19L315.24 290.03L315.3 289.87L315.43 289.43L315.55 288.98L315.66 288.52L315.77 288.05L315.87 287.57L315.96 287.08L316.05 286.59L316.13 286.08L316.21 285.57L316.28 285.05L316.34 284.52L316.4 283.99L316.45 283.45L316.5 282.9L316.55 282.35L316.59 281.79L316.63 281.23L316.66 280.66L316.69 280.09L316.72 279.52L316.74 278.94L316.77 278.36L316.79 277.78L316.81 277.19L316.83 276.6L316.84 276.01L316.85 275.85L316.85 275.69L316.85 275.53L316.85 275.38L316.85 275.23L316.84 275.09L316.84 274.94L316.83 274.8L316.82 274.67L316.8 274.53L316.78 274.4L316.75 274.26L316.72 274.13L316.69 274L316.64 273.87L316.59 273.74L316.54 273.61L316.48 273.47L316.4 273.34L316.32 273.2L316.24 273.07L316.14 272.92L316.03 272.78L315.91 272.64L315.78 272.49L315.64 272.34L315.55 272.27L315.46 272.2L315.36 272.13L315.26 272.07L315.16 272.01L315.05 271.95L314.94 271.89L314.83 271.83L314.71 271.78L314.59 271.73L314.47 271.68L314.34 271.62L314.21 271.58L314.08 271.53L313.95 271.48L313.81 271.43L313.67 271.39L313.53 271.34L313.39 271.3L313.24 271.25L313.1 271.21L312.95 271.17L312.8 271.13L312.64 271.08L312.49 271.04L312.33 271L311.98 270.91L311.63 270.82L311.27 270.74L310.9 270.67L310.53 270.59L310.15 270.52L309.77 270.45L309.38 270.39L308.99 270.33L308.59 270.27L308.19 270.22L307.79 270.17L307.38 270.12L306.97 270.07L306.56 270.03L306.15 269.99L305.73 269.95L305.32 269.92L304.9 269.88L304.48 269.85L304.06 269.83L303.65 269.8L303.23 269.78L302.81 269.76L302.39 269.74L301.98 269.73L301.13 269.73L300.28 269.75Z" id="d2Ed7OKAp"></path></defs><g><g><use xlink:href="#d2Ed7OKAp" opacity="1" fill="#ffffff" fill-opacity="1"></use><g><use xlink:href="#d2Ed7OKAp" opacity="1" fill-opacity="0" stroke="#000000" stroke-width="1" stroke-opacity="0"></use></g></g></g></svg>